<?xml version="1.0" encoding="UTF-8" standalone="no"?>
<!-- Created with Inkscape (http://www.inkscape.org/) -->

<svg
   xmlns:dc="http://purl.org/dc/elements/1.1/"
   xmlns:cc="http://creativecommons.org/ns#"
   xmlns:rdf="http://www.w3.org/1999/02/22-rdf-syntax-ns#"
   xmlns:svg="http://www.w3.org/2000/svg"
   xmlns="http://www.w3.org/2000/svg"
   xmlns:sodipodi="http://sodipodi.sourceforge.net/DTD/sodipodi-0.dtd"
   xmlns:inkscape="http://www.inkscape.org/namespaces/inkscape"
   width="15mm"
   height="7.5mm"
   viewBox="0 0 15 7.4999999"
   version="1.1"
   id="svg8"
   inkscape:version="0.92.2 (5c3e80d, 2017-08-06)"
   sodipodi:docname="lo20006.svg">
  <defs
     id="defs2" />
  <sodipodi:namedview
     id="base"
     pagecolor="#ffffff"
     bordercolor="#666666"
     borderopacity="1.0"
     inkscape:pageopacity="0.0"
     inkscape:pageshadow="2"
     inkscape:zoom="16"
     inkscape:cx="27.019103"
     inkscape:cy="9.170473"
     inkscape:document-units="mm"
     inkscape:current-layer="layer1"
     showgrid="false"
     inkscape:window-width="2698"
     inkscape:window-height="1389"
     inkscape:window-x="0"
     inkscape:window-y="0"
     inkscape:window-maximized="0" />
  <metadata
     id="metadata5">
    <rdf:RDF>
      <cc:Work
         rdf:about="">
        <dc:format>image/svg+xml</dc:format>
        <dc:type
           rdf:resource="http://purl.org/dc/dcmitype/StillImage" />
        <dc:title />
      </cc:Work>
    </rdf:RDF>
  </metadata>
  <g
     inkscape:label="Layer 1"
     inkscape:groupmode="layer"
     id="layer1"
     transform="translate(0,-289.5)"
     style="display:inline">
    <rect
       transform="translate(0,289.8)"
       y="-0.24880475"
       x="0.051195446"
       height="7.3976092"
       width="14.89761"
       id="rect4790"
       style="display:inline;fill:#fffffd;fill-opacity:1;stroke:#000000;stroke-width:0.10239089;stroke-linecap:square;stroke-linejoin:miter;stroke-miterlimit:4;stroke-dasharray:none;stroke-opacity:1" />
    <circle
       style="fill:#8c8c8c;fill-opacity:1;stroke-width:0.05719415"
       id="path815-56"
       cx="8.8250008"
       cy="295.79001"
       r="0.55000001" />
    <circle
       style="fill:#8c8c8c;fill-opacity:1;stroke-width:0.05719415"
       id="path815-56-2"
       cx="13.905001"
       cy="295.79001"
       r="0.55000001" />
    <circle
       style="fill:#8c8c8c;fill-opacity:1;stroke-width:0.05719415"
       id="path815-56-9"
       cx="11.365001"
       cy="295.79001"
       r="0.55000001" />
    <circle
       style="fill:#8c8c8c;fill-opacity:1;stroke-width:0.05719415"
       id="path815-56-1"
       cx="1.0950001"
       cy="295.79001"
       r="0.55000001" />
    <circle
       style="fill:#8c8c8c;fill-opacity:1;stroke-width:0.05719415"
       id="path815-56-1-2"
       cx="1.0950001"
       cy="290.70999"
       r="0.55000001" />
    <circle
       style="fill:#8c8c8c;fill-opacity:1;stroke-width:0.05719415"
       id="path815-56-1-0"
       cx="6.2849998"
       cy="295.79001"
       r="0.55000001" />
    <circle
       style="fill:#8c8c8c;fill-opacity:1;stroke-width:0.05719415"
       id="path815-56-26"
       cx="8.8250008"
       cy="290.70999"
       r="0.55000001" />
    <circle
       style="fill:#8c8c8c;fill-opacity:1;stroke-width:0.05719415"
       id="path815-56-2-1"
       cx="13.905001"
       cy="290.70999"
       r="0.55000001" />
    <circle
       style="fill:#8c8c8c;fill-opacity:1;stroke-width:0.05719415"
       id="path815-56-9-8"
       cx="11.365002"
       cy="290.70999"
       r="0.55000001" />
    <circle
       style="fill:#8c8c8c;fill-opacity:1;stroke-width:0.05719415"
       id="path815-56-1-0-7"
       cx="6.2849998"
       cy="290.70999"
       r="0.55000001" />
    <g
       id="g7894"
       transform="translate(-0.0503638,-0.20868013)"
       style="fill:#008ffb;fill-opacity:1">
      <path
         inkscape:connector-curvature="0"
         id="path7101"
         d="m 2.2762635,292.84425 0.4454508,-0.0279 q 0.014469,0.10852 0.058911,0.16536 0.072347,0.092 0.2067057,0.092 0.1002523,0 0.1539958,-0.0465 0.054777,-0.0476 0.054777,-0.10956 0,-0.0589 -0.051676,-0.10542 -0.051677,-0.0465 -0.2397787,-0.0879 -0.3079915,-0.0692 -0.4392496,-0.18397 -0.1322917,-0.11472 -0.1322917,-0.29248 0,-0.11679 0.067179,-0.22015 0.068213,-0.10438 0.2036051,-0.16329 0.1364258,-0.0599 0.3731038,-0.0599 0.2904216,0 0.4423503,0.10852 0.1529622,0.10749 0.181901,0.34313 l -0.4413167,0.0258 q -0.01757,-0.10232 -0.074414,-0.14883 -0.05581,-0.0465 -0.1550292,-0.0465 -0.081649,0 -0.1229899,0.0351 -0.041341,0.0341 -0.041341,0.0837 0,0.0362 0.034106,0.0651 0.033073,0.03 0.1570963,0.0558 0.306958,0.0661 0.4392497,0.13436 0.1333251,0.0672 0.1932698,0.16743 0.060978,0.10026 0.060978,0.22428 0,0.14573 -0.080615,0.26872 -0.080615,0.12299 -0.2253093,0.18707 -0.144694,0.063 -0.3648356,0.063 -0.3865397,0 -0.5353678,-0.14883 -0.1488281,-0.14883 -0.1684651,-0.37827 z"
         style="fill:#008ffb;fill-opacity:1" />
      <path
         inkscape:connector-curvature="0"
         id="path7103"
         d="M 3.906138,291.83036 H 4.37536 v 1.51515 H 3.906138 Z"
         style="fill:#008ffb;fill-opacity:1" />
      <path
         inkscape:connector-curvature="0"
         id="path7105"
         d="m 4.7091898,291.83036 h 1.2547036 v 0.32349 H 5.1784119 v 0.24082 h 0.7286376 v 0.30902 H 5.1784119 v 0.29869 h 0.8082193 v 0.34313 H 4.7091898 Z"
         style="fill:#008ffb;fill-opacity:1" />
      <path
         inkscape:connector-curvature="0"
         id="path7107"
         d="m 6.234678,291.83036 h 0.6159831 l 0.2377115,0.92191 0.2366782,-0.92191 h 0.6139159 v 1.51515 H 7.5565612 v -1.15548 l -0.2966227,1.15548 H 6.9137063 l -0.2955891,-1.15548 v 1.15548 H 6.234678 Z"
         style="fill:#008ffb;fill-opacity:1" />
      <path
         inkscape:connector-curvature="0"
         id="path7109"
         d="m 8.2355895,291.83036 h 1.2547036 v 0.32349 H 8.7048114 v 0.24082 H 9.433449 v 0.30902 H 8.7048114 v 0.29869 h 0.8082198 v 0.34313 H 8.2355895 Z"
         style="fill:#008ffb;fill-opacity:1" />
      <path
         inkscape:connector-curvature="0"
         id="path7111"
         d="m 9.769346,291.83036 h 0.437182 l 0.570508,0.83819 v -0.83819 h 0.441317 v 1.51515 h -0.441317 l -0.567407,-0.83199 v 0.83199 H 9.769346 Z"
         style="fill:#008ffb;fill-opacity:1" />
      <path
         inkscape:connector-curvature="0"
         id="path7113"
         d="m 11.449864,292.84425 0.44545,-0.0279 q 0.01447,0.10852 0.05891,0.16536 0.07235,0.092 0.206705,0.092 0.100253,0 0.153996,-0.0465 0.05478,-0.0476 0.05478,-0.10956 0,-0.0589 -0.05168,-0.10542 -0.05168,-0.0465 -0.239779,-0.0879 -0.307991,-0.0692 -0.43925,-0.18397 -0.132291,-0.11472 -0.132291,-0.29248 0,-0.11679 0.06718,-0.22015 0.06821,-0.10438 0.203605,-0.16329 0.136426,-0.0599 0.373104,-0.0599 0.290422,0 0.44235,0.10852 0.152963,0.10749 0.181901,0.34313 l -0.441316,0.0258 q -0.01757,-0.10232 -0.07441,-0.14883 -0.05581,-0.0465 -0.15503,-0.0465 -0.08165,0 -0.12299,0.0351 -0.04134,0.0341 -0.04134,0.0837 0,0.0362 0.03411,0.0651 0.03307,0.03 0.157096,0.0558 0.306959,0.0661 0.439251,0.13436 0.133325,0.0672 0.193269,0.16743 0.06098,0.10026 0.06098,0.22428 0,0.14573 -0.08062,0.26872 -0.08061,0.12299 -0.225309,0.18707 -0.144694,0.063 -0.364836,0.063 -0.38654,0 -0.535368,-0.14883 -0.148828,-0.14883 -0.168465,-0.37827 z"
         style="fill:#008ffb;fill-opacity:1" />
      <path
         inkscape:connector-curvature="0"
         id="path7116"
         d="m 2.9671774,293.53973 h 0.2087728 v 1.36736 h 0.7513753 v 0.1757 H 2.9671774 Z"
         style="fill:#008ffb;fill-opacity:1" />
      <path
         inkscape:connector-curvature="0"
         id="path7118"
         d="m 4.6973043,293.68132 q -0.2273763,0 -0.361735,0.1695 -0.1333252,0.1695 -0.1333252,0.46199 0,0.29145 0.1333252,0.46095 0.1343587,0.1695 0.361735,0.1695 0.2273764,0 0.3596678,-0.1695 0.1333254,-0.1695 0.1333254,-0.46095 0,-0.29249 -0.1333254,-0.46199 -0.1322914,-0.1695 -0.3596678,-0.1695 z m 0,-0.1695 q 0.324528,0 0.5188314,0.21808 0.1943033,0.21704 0.1943033,0.58291 0,0.36483 -0.1943033,0.58291 -0.1943034,0.21704 -0.5188314,0.21704 -0.3255615,0 -0.5208984,-0.21704 -0.1943034,-0.21704 -0.1943034,-0.58291 0,-0.36587 0.1943034,-0.58291 0.1953369,-0.21808 0.5208984,-0.21808 z"
         style="fill:#008ffb;fill-opacity:1" />
      <path
         inkscape:connector-curvature="0"
         id="path7120"
         d="M 5.9354713,294.90709 H 6.664109 v 0.1757 H 5.6843238 v -0.1757 q 0.1188559,-0.12299 0.3234947,-0.3297 0.2056722,-0.20774 0.258382,-0.26768 0.1002522,-0.11266 0.1395264,-0.19017 0.040308,-0.0786 0.040308,-0.154 0,-0.12299 -0.086816,-0.2005 -0.085783,-0.0775 -0.2242756,-0.0775 -0.098185,0 -0.2077392,0.0341 -0.1085207,0.0341 -0.2325442,0.10335 v -0.21084 q 0.1260906,-0.0506 0.2356446,-0.0765 0.1095541,-0.0258 0.2005046,-0.0258 0.2397784,0 0.3824055,0.11989 0.1426268,0.11989 0.1426268,0.3204 0,0.0951 -0.036173,0.18086 -0.03514,0.0847 -0.1291913,0.20051 -0.025839,0.03 -0.1643309,0.17363 -0.138493,0.14263 -0.3906739,0.39998 z"
         style="fill:#008ffb;fill-opacity:1" />
      <path
         inkscape:connector-curvature="0"
         id="path7122"
         d="m 7.5498435,293.67719 q -0.1612305,0 -0.2428793,0.15916 -0.080615,0.15813 -0.080615,0.47646 0,0.31729 0.080615,0.47645 0.081649,0.15813 0.2428793,0.15813 0.1622639,0 0.2428793,-0.15813 0.081649,-0.15916 0.081649,-0.47645 0,-0.31833 -0.081649,-0.47646 -0.080615,-0.15916 -0.2428793,-0.15916 z m 0,-0.16537 q 0.2594155,0 0.3958413,0.20568 0.1374595,0.20463 0.1374595,0.59531 0,0.38964 -0.1374595,0.59531 -0.1364258,0.20464 -0.3958413,0.20464 -0.2594158,0 -0.396875,-0.20464 -0.1364258,-0.20567 -0.1364258,-0.59531 0,-0.39068 0.1364258,-0.59531 0.1374592,-0.20568 0.396875,-0.20568 z"
         style="fill:#008ffb;fill-opacity:1" />
      <path
         inkscape:connector-curvature="0"
         id="path7124"
         d="m 8.8975646,293.67719 q -0.1612305,0 -0.2428793,0.15916 -0.080615,0.15813 -0.080615,0.47646 0,0.31729 0.080615,0.47645 0.081649,0.15813 0.2428793,0.15813 0.1622639,0 0.2428793,-0.15813 0.081649,-0.15916 0.081649,-0.47645 0,-0.31833 -0.081649,-0.47646 -0.080615,-0.15916 -0.2428793,-0.15916 z m 0,-0.16537 q 0.2594155,0 0.3958415,0.20568 0.137459,0.20463 0.137459,0.59531 0,0.38964 -0.137459,0.59531 -0.136426,0.20464 -0.3958415,0.20464 -0.2594158,0 -0.396875,-0.20464 -0.1364258,-0.20567 -0.1364258,-0.59531 0,-0.39068 0.1364258,-0.59531 0.1374592,-0.20568 0.396875,-0.20568 z"
         style="fill:#008ffb;fill-opacity:1" />
      <path
         inkscape:connector-curvature="0"
         id="path7126"
         d="m 10.245286,293.67719 q -0.16123,0 -0.242879,0.15916 -0.08061,0.15813 -0.08061,0.47646 0,0.31729 0.08061,0.47645 0.08165,0.15813 0.242879,0.15813 0.162264,0 0.242879,-0.15813 0.08165,-0.15916 0.08165,-0.47645 0,-0.31833 -0.08165,-0.47646 -0.08061,-0.15916 -0.242879,-0.15916 z m 0,-0.16537 q 0.259416,0 0.395841,0.20568 0.13746,0.20463 0.13746,0.59531 0,0.38964 -0.13746,0.59531 -0.136425,0.20464 -0.395841,0.20464 -0.2594161,0 -0.3968751,-0.20464 -0.1364258,-0.20567 -0.1364258,-0.59531 0,-0.39068 0.1364258,-0.59531 0.137459,-0.20568 0.3968751,-0.20568 z"
         style="fill:#008ffb;fill-opacity:1" />
      <path
         inkscape:connector-curvature="0"
         id="path7128"
         d="m 11.618845,294.22806 q -0.14056,0 -0.223242,0.0961 -0.08165,0.0961 -0.08165,0.26355 0,0.16639 0.08165,0.26355 0.08268,0.0961 0.223242,0.0961 0.14056,0 0.222209,-0.0961 0.08268,-0.0972 0.08268,-0.26355 0,-0.16743 -0.08268,-0.26355 -0.08165,-0.0961 -0.222209,-0.0961 z m 0.414445,-0.65422 v 0.19016 q -0.07855,-0.0372 -0.159163,-0.0568 -0.07958,-0.0196 -0.15813,-0.0196 -0.206706,0 -0.31626,0.13953 -0.10852,0.13953 -0.124023,0.42168 0.06098,-0.0899 0.152962,-0.13746 0.09198,-0.0486 0.202572,-0.0486 0.232544,0 0.366902,0.1416 0.135393,0.14056 0.135393,0.38344 0,0.23771 -0.14056,0.38137 -0.14056,0.14366 -0.374138,0.14366 -0.267684,0 -0.409277,-0.20464 -0.141593,-0.20567 -0.141593,-0.59531 0,-0.36587 0.173632,-0.58291 0.173633,-0.21808 0.466122,-0.21808 0.07855,0 0.15813,0.0155 0.08062,0.0155 0.167431,0.0465 z"
         style="fill:#008ffb;fill-opacity:1" />
    </g>
    <rect
       style="display:inline;fill:#008ffb;fill-opacity:1;stroke-width:0.26458332"
       id="rect4679"
       width="0.40159971"
       height="2.2914805"
       x="0.67863494"
       y="292.10425"
       transform="translate(0,7.5000001e-6)" />
  </g>
</svg>
